<svg width="13" height="19" viewBox="0 0 13 19" fill="none" xmlns="http://www.w3.org/2000/svg">
<path d="M1.93401 5.63266C1.93401 5.23791 1.91164 4.83921 1.93773 4.4484C2.06822 2.54175 3.30226 0.852209 5.03587 0.264028C6.79186 -0.335995 8.33906 0.102179 9.67376 1.42065C10.0093 1.75224 10.0205 2.24963 9.72596 2.58517C9.4277 2.92071 8.96167 2.9365 8.62613 2.60096C8.14147 2.12331 7.59715 1.77593 6.93726 1.66935C5.48326 1.43644 4.08891 2.33648 3.61543 3.8089C3.46257 4.27866 3.39546 5.12343 3.47375 5.66029C3.54459 5.66029 3.61543 5.66029 3.68999 5.66029C6.19907 5.66029 8.71188 5.66029 11.221 5.66029C12.2164 5.66029 12.9807 6.41032 12.9881 7.46431C13.003 9.1499 13.0105 10.8315 12.9695 12.5171C12.9322 14.0172 12.4103 15.3515 11.5043 16.5002C10.3262 17.9963 8.80882 18.8608 6.97081 18.9832C4.61086 19.1411 2.69083 18.1858 1.26293 16.1883C0.401714 14.9804 0.00279615 13.5948 0.00279615 12.0829C-0.000932051 10.5513 -0.000932051 9.01569 0.00279615 7.48405C0.00652436 6.63533 0.528473 5.92872 1.29648 5.72345C1.48662 5.67608 1.68794 5.66819 1.93401 5.63266ZM6.48987 7.28272C4.94267 7.28272 3.39546 7.28272 1.85199 7.28667C1.58355 7.28667 1.53882 7.33404 1.53882 7.61826C1.53882 8.89331 1.52763 10.1684 1.54254 11.4434C1.55 12.0395 1.54627 12.6474 1.65812 13.2277C2.18007 15.9594 4.67051 17.7516 7.28398 17.3134C9.67376 16.9147 11.4409 14.7396 11.4521 12.1776C11.4596 10.6579 11.4558 9.13806 11.4558 7.62221C11.4558 7.3222 11.4186 7.28272 11.1315 7.28272C9.58055 7.28272 8.03335 7.28272 6.48987 7.28272Z" fill="#A0B1BB"/>
<path d="M7.25043 14.1475C6.74712 14.1475 6.255 14.1475 5.73305 14.1475C5.73305 14.0764 5.73305 14.0054 5.73305 13.9382C5.73305 13.3264 5.72932 12.7145 5.73677 12.1026C5.73677 11.9803 5.70695 11.9013 5.61002 11.8263C5.02842 11.3763 4.82336 10.65 5.0657 9.95914C5.30803 9.27622 5.92691 8.85778 6.63154 8.9091C7.28025 8.95647 7.86185 9.48149 7.99234 10.196C8.11537 10.8592 7.91032 11.4158 7.3921 11.8263C7.29517 11.9013 7.26161 11.9763 7.26161 12.0987C7.26534 12.7619 7.26534 13.429 7.26161 14.0922C7.26534 14.0961 7.25788 14.108 7.25043 14.1475Z" fill="#A0B1BB"/>
</svg>
