<svg width="13" height="19" viewBox="0 0 13 19" fill="none" xmlns="http://www.w3.org/2000/svg">
<path d="M1.93171 5.64584C1.93171 5.25518 1.90563 4.88425 1.93544 4.52121C2.10683 2.55213 3.04947 1.1355 4.76338 0.37786C7.53171 -0.849362 10.6018 1.0408 11.0303 4.19764C11.0676 4.48175 11.0676 4.77376 11.0787 5.06182C11.0862 5.25123 11.0787 5.44064 11.0787 5.64189C11.2278 5.65373 11.3619 5.65768 11.4923 5.68135C12.3567 5.83525 12.964 6.4824 12.9752 7.40578C13.0013 9.20518 13.0274 11.0125 12.938 12.8079C12.856 14.4219 12.1816 15.8188 11.0974 16.9631C9.68526 18.4547 7.96391 19.1295 5.98174 18.9795C3.13517 18.7625 0.74688 16.5251 0.147014 13.5656C-0.0131991 12.7803 -0.00202149 11.9871 0.00170439 11.19C0.00170439 9.99833 0.00170439 8.81057 0.00170439 7.61886C0.00170439 6.45083 0.690992 5.69714 1.79758 5.65768C1.83111 5.65768 1.86092 5.65373 1.93171 5.64584ZM6.49964 7.28345C4.94594 7.28345 3.39598 7.2795 1.84229 7.28345C1.58893 7.28345 1.54049 7.33475 1.54049 7.60703C1.54049 8.98814 1.53304 10.3693 1.54422 11.7504C1.54794 12.2357 1.55912 12.729 1.64854 13.2025C2.34156 16.7342 6.11215 18.4942 9.02951 16.6316C10.5571 15.657 11.3843 14.189 11.4364 12.291C11.4774 10.7323 11.4476 9.17361 11.4476 7.61492C11.4476 7.32291 11.4103 7.28345 11.1384 7.28345C9.59212 7.28345 8.04588 7.28345 6.49964 7.28345ZM3.47422 5.64584C5.49738 5.64584 7.51308 5.64584 9.55858 5.64584C9.53995 5.20783 9.55858 4.77771 9.49897 4.35943C9.186 2.07466 6.70456 0.879008 4.87515 2.12991C3.66424 2.95858 3.33264 4.19369 3.47422 5.64584Z" fill="#A0B1BB"/>
<path d="M7.26344 14.1456C6.74927 14.1456 6.25373 14.1456 5.73583 14.1456C5.73583 14.0312 5.73583 13.9207 5.73583 13.8142C5.73583 13.238 5.73211 12.658 5.73956 12.0818C5.73956 11.9635 5.70602 11.8964 5.61288 11.8254C5.06145 11.411 4.83789 10.7086 5.03537 10.0338C5.23284 9.36696 5.82153 8.90528 6.49218 8.89738C7.13676 8.88949 7.72918 9.33934 7.93783 9.9865C8.1502 10.6494 7.95645 11.3716 7.43111 11.7819C7.3007 11.8845 7.25599 11.9832 7.25972 12.1529C7.27089 12.7487 7.26344 13.3485 7.26344 13.9444C7.26344 14.0036 7.26344 14.0707 7.26344 14.1456Z" fill="#A0B1BB"/>
</svg>
