<svg width="16" height="16" viewBox="0 0 16 16" fill="none" xmlns="http://www.w3.org/2000/svg">
<path d="M14.5844 16C9.7096 16 4.86336 16 0 16C0 11.1297 0 6.27653 0 1.4005C2.90546 1.4005 5.81092 1.4005 8.74492 1.4005C8.74492 1.86352 8.74492 2.33226 8.74492 2.84101C6.33036 2.84101 3.9158 2.84101 1.47842 2.84101C1.47842 6.75098 1.47842 10.6209 1.47842 14.5138C5.34856 14.5138 9.21299 14.5138 13.1174 14.5138C13.1174 12.0957 13.1174 9.67774 13.1174 7.23687C13.6254 7.23687 14.0935 7.23687 14.5844 7.23687C14.5844 10.1579 14.5844 13.0675 14.5844 16Z" fill="#A0B1BB"/>
<path d="M15.9998 1.01751C12.9802 4.04144 9.94915 7.07681 6.92382 10.1065C6.58704 9.76349 6.23884 9.40336 5.91919 9.07181C8.92168 6.06502 11.9584 3.02394 14.978 0C15.2977 0.314398 15.6516 0.66881 15.9998 1.01751Z" fill="#A0B1BB"/>
</svg>
