<svg width="19" height="17" viewBox="0 0 19 17" fill="none" xmlns="http://www.w3.org/2000/svg">
<path d="M3.32701 2.68955C3.32701 2.04677 3.34471 1.48856 3.32701 0.930348C3.30932 0.321393 3.57477 0 4.26495 0C7.13184 0.0169154 9.98104 0 12.8479 0C13.485 0 13.7505 0.304478 13.7505 0.896517C13.7328 1.45473 13.7505 2.01294 13.7505 2.70647C14.5291 2.70647 15.2547 2.7403 15.9803 2.70647C16.7943 2.67264 17.0952 3.02786 17.0775 3.75522C17.0598 5.05771 17.0421 6.34328 17.0952 7.64577C17.1129 8.01791 17.2899 8.45771 17.5553 8.74527C19.502 10.809 19.4843 13.6846 17.4845 15.596C15.5025 17.4736 12.4586 17.4567 10.2996 15.6129C9.99874 15.3423 9.48553 15.1731 9.0785 15.1562C6.45936 15.1224 3.84022 15.1393 1.20339 15.1393C0.123878 15.1393 0 15.0209 0 13.9552C0 10.606 0 7.25672 0 3.89055C0 2.84179 0.123878 2.72338 1.22108 2.70647C1.89357 2.68955 2.56605 2.68955 3.32701 2.68955ZM9.04311 13.7353C8.5122 11.8239 8.86614 10.1154 10.2996 8.71144C11.7684 7.27363 13.6266 7.07065 15.6086 7.49353C15.6086 6.32637 15.6086 5.24378 15.6086 4.11045C10.8659 4.11045 6.15851 4.11045 1.43345 4.11045C1.43345 7.34129 1.43345 10.5214 1.43345 13.7353C3.9995 13.7353 6.47706 13.7353 9.04311 13.7353ZM13.9451 8.62687C11.8215 8.62687 10.1934 10.1662 10.2111 12.196C10.2288 14.1413 11.8923 15.6468 13.9982 15.6299C15.9449 15.6129 17.573 14.0736 17.6084 12.196C17.6438 10.2507 15.9803 8.62687 13.9451 8.62687ZM4.79586 1.38706C4.79586 1.79303 4.79586 2.21592 4.79586 2.63881C7.32651 2.63881 9.80407 2.63881 12.2993 2.63881C12.2993 2.19901 12.2993 1.80995 12.2993 1.38706C9.78638 1.38706 7.32651 1.38706 4.79586 1.38706Z" fill="#A0B1BB"/>
<path d="M14.6176 11.4687C15.1662 11.4687 15.6086 11.4687 16.0334 11.4687C16.5466 11.4687 17.0421 11.5532 17.0244 12.1453C17.0067 12.7204 16.4935 12.805 15.9803 12.805C15.5733 12.805 15.1662 12.805 14.6176 12.805C14.6176 13.2617 14.6176 13.6677 14.6176 14.0736C14.6176 14.5811 14.5822 15.0886 13.8921 15.0886C13.2373 15.0886 13.2196 14.598 13.2373 14.1075C13.2373 13.7184 13.2373 13.3294 13.2373 12.7881C12.671 12.7881 12.1401 12.8726 11.6445 12.7542C11.326 12.6866 11.0606 12.3483 10.7774 12.1284C11.0606 11.9085 11.3083 11.5701 11.6269 11.4856C12.087 11.3841 12.6179 11.4517 13.2373 11.4517C13.2373 10.8935 13.1665 10.3861 13.2727 9.91244C13.3258 9.62488 13.662 9.38806 13.8567 9.13433C14.1044 9.38806 14.5114 9.59105 14.5999 9.87861C14.7061 10.3522 14.6176 10.8428 14.6176 11.4687Z" fill="#A0B1BB"/>
</svg>
