<svg width="16" height="16" viewBox="0 0 16 16" fill="none" xmlns="http://www.w3.org/2000/svg">
<path d="M1.28726e-05 7.99587C0.00785431 3.55114 3.57571 0.0157281 8.02181 5.00631e-05C12.3816 -0.015628 16.1299 3.65304 15.9966 8.24672C15.8711 12.5033 12.264 16.0466 7.90418 15.9995C3.56787 15.9525 -0.00782857 12.3701 1.28726e-05 7.99587ZM13.2442 12.2838C15.5417 9.57936 15.2046 5.2914 12.5228 2.95537C9.66851 0.462554 5.42629 0.689886 2.95624 3.45707C0.454817 6.26344 0.893937 10.2457 2.78372 12.2682C3.74038 11.9468 4.68135 11.6254 5.57528 11.3275C5.30867 10.716 5.05774 10.1046 4.79113 9.50097C4.75192 9.41474 4.69704 9.34419 4.64215 9.27364C4.18734 8.56812 3.99131 7.83125 4.32065 7.01599C4.37554 6.87489 4.37554 6.71027 4.36769 6.56133C4.35985 5.46386 4.57157 4.45263 5.45765 3.70008C6.52409 2.79859 7.77872 2.67316 9.0804 2.96321C10.7977 3.34732 11.6759 4.6486 11.6367 6.57701C11.6367 6.74163 11.6838 6.90625 11.6994 7.07087C11.7308 7.45498 11.8876 7.87829 11.77 8.20753C11.4564 9.09334 11.0408 9.93996 10.6487 10.8023C10.5703 10.9747 10.4527 11.1315 10.3507 11.2961C11.3309 11.6332 12.2797 11.9546 13.2442 12.2838ZM12.2483 13.2324C12.0994 13.1775 11.9739 13.1226 11.8406 13.0834C11.1192 12.8561 10.3978 12.6366 9.68419 12.3936C9.15097 12.2133 8.90789 11.79 9.0804 11.2569C9.19802 10.9042 9.39406 10.5749 9.56657 10.2378C9.68419 9.99483 9.8175 9.75966 9.93512 9.50881C10.0919 9.17957 10.2566 8.85817 10.3821 8.52109C10.484 8.23888 10.5938 7.92532 10.586 7.63528C10.5781 7.18845 10.4527 6.74163 10.4213 6.2948C10.335 5.11895 9.89591 4.42127 8.9471 4.19394C8.4374 4.06851 7.88066 4.05283 7.36312 4.12339C6.32805 4.26449 5.77131 4.89161 5.63017 5.94204C5.59096 6.24777 5.67722 6.59269 5.57528 6.87489C5.25378 7.73719 5.49686 8.45054 5.95951 9.17173C6.22612 9.59504 6.39863 10.0732 6.61819 10.5279C6.68876 10.6768 6.78286 10.8258 6.84559 10.9825C7.15141 11.7273 6.91616 12.2211 6.1477 12.4563C5.4655 12.6679 4.78329 12.8796 4.10109 13.0991C3.99131 13.1383 3.88153 13.1932 3.74822 13.248C6.25748 15.3803 10.0998 15.1608 12.2483 13.2324Z" fill="#A0B1BB"/>
</svg>
