<svg width="14" height="16" viewBox="0 0 14 16" fill="none" xmlns="http://www.w3.org/2000/svg">
<path d="M1.25291 3.50031C1.09138 3.50031 0.947787 3.50031 0.807787 3.50031C0.359069 3.50031 0.100607 3.29257 0.104197 2.93342C0.107787 2.57428 0.362658 2.37358 0.814966 2.37358C2.04266 2.37358 3.26676 2.37358 4.49445 2.37358C4.55548 2.37358 4.61291 2.37358 4.69907 2.37358C4.69907 2.29259 4.70625 2.21865 4.69907 2.14471C4.56984 0.891221 5.4565 -0.00312377 6.77394 0.116592C7.04676 0.141239 7.32317 0.120113 7.59958 0.120113C8.53291 0.127155 9.29035 0.877137 9.29394 1.79613C9.29394 1.98274 9.29394 2.16936 9.29394 2.37358C9.37292 2.37358 9.43753 2.37358 9.50214 2.37358C10.7765 2.37358 12.0509 2.37358 13.3252 2.37358C13.6483 2.37358 13.8888 2.62005 13.8924 2.93342C13.8924 3.2468 13.6519 3.48975 13.3324 3.49679C13.196 3.50031 13.056 3.49679 12.9196 3.49679C12.8657 3.49679 12.8155 3.49679 12.7437 3.49679C12.7437 3.58834 12.7437 3.66228 12.7437 3.73622C12.7437 7.20797 12.7437 10.6832 12.7437 14.155C12.7437 15.1585 12.0006 15.8909 10.9847 15.8909C8.32471 15.8909 5.66112 15.8909 3.00112 15.8909C2.01753 15.8909 1.26009 15.1514 1.26009 14.1902C1.26009 10.7114 1.26009 7.23261 1.26009 3.75383C1.25291 3.67988 1.25291 3.60242 1.25291 3.50031ZM2.40163 3.50735C2.40163 3.58834 2.40163 3.65172 2.40163 3.7151C2.40163 7.16924 2.40163 10.6269 2.40163 14.081C2.40163 14.5564 2.61702 14.7676 3.10163 14.7676C5.68984 14.7676 8.28163 14.7676 10.8698 14.7676C11.3796 14.7676 11.5914 14.5634 11.5914 14.067C11.5914 10.6058 11.5914 7.14459 11.5914 3.68341C11.5914 3.62707 11.5878 3.57073 11.5842 3.50735C8.52215 3.50735 5.47445 3.50735 2.40163 3.50735ZM8.14163 2.36654C8.14163 2.15527 8.15958 1.95105 8.13804 1.74683C8.10932 1.45811 7.87958 1.25741 7.58163 1.25037C7.19394 1.2398 6.80625 1.24332 6.41856 1.25037C6.16009 1.25389 5.93394 1.40881 5.89086 1.64472C5.8442 1.88063 5.85497 2.12711 5.84061 2.36654C6.62676 2.36654 7.37702 2.36654 8.14163 2.36654Z" fill="#A0B1BB"/>
<path d="M7.10769 16C5.73641 16 4.36513 16 2.99385 16C2.48769 16 2.02103 15.8169 1.68 15.4789C1.33538 15.1444 1.14872 14.6867 1.14872 14.1937C1.14872 11.6762 1.14872 9.15862 1.14872 6.6446V3.60594H0.811282C0.538462 3.60594 0.319487 3.532 0.179487 3.39468C0.0610256 3.27848 0 3.12004 0 2.93342C0.00358974 2.51794 0.308718 2.26795 0.818461 2.26795C1.7159 2.26795 2.61692 2.26795 3.51795 2.26795H4.59846C4.59846 2.22922 4.59846 2.19048 4.59487 2.15527C4.53026 1.51444 4.71692 0.940515 5.12256 0.539116C5.5282 0.137718 6.12051 -0.0488976 6.78462 0.0109601C6.96051 0.0285653 7.14359 0.0215232 7.31949 0.0180021C7.41282 0.0144811 7.50615 0.0144811 7.60308 0.0144811C8.59385 0.0215232 9.40154 0.820799 9.40513 1.79613C9.40513 1.92288 9.40513 2.04964 9.40513 2.17992V2.26795H10.5215C11.4405 2.26795 12.3918 2.26795 13.3251 2.26795C13.7021 2.26795 13.9964 2.56019 14 2.93342C14 3.30665 13.7128 3.59538 13.3323 3.60242C13.2354 3.60594 13.1385 3.60242 13.0451 3.60242C13.0021 3.60242 12.959 3.60242 12.9159 3.60242H12.8513V6.51432C12.8513 9.06003 12.8513 11.6093 12.8513 14.155C12.8513 15.2219 12.0651 15.993 10.9846 15.9965C9.69231 16 8.4 16 7.10769 16ZM1.25641 3.39468H1.3641V6.6446C1.3641 9.16214 1.3641 11.6797 1.3641 14.1937C1.3641 15.1021 2.06769 15.7887 2.99744 15.7887C5.66103 15.7887 8.32103 15.7887 10.981 15.7887C11.9395 15.7887 12.6323 15.1021 12.6323 14.1585C12.6323 11.6128 12.6323 9.06355 12.6323 6.51784V3.39468H12.9159C12.959 3.39468 13.0021 3.39468 13.0451 3.39468C13.1385 3.39468 13.2318 3.39468 13.3251 3.39468C13.5872 3.38764 13.781 3.19046 13.781 2.93694C13.781 2.67991 13.5836 2.48273 13.3215 2.48273C12.3882 2.47921 11.4369 2.48273 10.5179 2.48273H9.18256V2.18344C9.18256 2.05316 9.18256 1.92641 9.18256 1.79965C9.18615 0.936993 8.47179 0.232786 7.59949 0.225743C7.50974 0.225743 7.41282 0.225743 7.32308 0.229265C7.14 0.232786 6.94974 0.236307 6.76308 0.222222C6.16 0.169407 5.63231 0.334896 5.26974 0.690521C4.91077 1.04615 4.74564 1.5567 4.80667 2.13415C4.81385 2.19048 4.81026 2.2433 4.81026 2.29964C4.81026 2.32428 4.81026 2.34893 4.81026 2.37358V2.47921H3.51795C2.62051 2.47921 1.71949 2.47921 0.822051 2.47921C0.549231 2.47921 0.222564 2.55667 0.218974 2.93342C0.215385 3.0637 0.254872 3.16933 0.330256 3.24327C0.430769 3.34186 0.595897 3.39116 0.811282 3.39116H1.25641V3.39468ZM3.10154 14.8733C2.55949 14.8733 2.29385 14.6127 2.29385 14.081C2.29385 11.3945 2.29385 8.70441 2.29385 6.01785V3.40172H11.6882L11.6918 3.50383C11.6918 3.52496 11.6954 3.54256 11.6954 3.56369C11.699 3.60594 11.699 3.64467 11.699 3.68693C11.699 7.14811 11.699 10.6093 11.699 14.0705C11.699 14.6268 11.4441 14.8768 10.8697 14.8768L3.10154 14.8733ZM2.51282 3.61298V6.01785C2.51282 8.70441 2.51282 11.3945 2.51282 14.081C2.51282 14.5 2.67795 14.662 3.10513 14.662H10.8733C11.3256 14.662 11.4872 14.5071 11.4872 14.0669C11.4872 10.6058 11.4872 7.14459 11.4872 3.6834C11.4872 3.65876 11.4872 3.63763 11.4836 3.61298H2.51282ZM8.25282 2.47217H5.72564L5.73282 2.35949C5.73641 2.28907 5.74 2.21513 5.74 2.14119C5.74359 1.97218 5.75077 1.79613 5.78308 1.6236C5.83692 1.34543 6.09538 1.14826 6.41487 1.14121C6.84564 1.13417 7.22615 1.13417 7.58513 1.14121C7.94051 1.14826 8.21333 1.39473 8.24564 1.73275C8.26 1.87711 8.25641 2.02499 8.25282 2.16936C8.25282 2.23274 8.24923 2.29964 8.24923 2.36301V2.47217H8.25282ZM5.9518 2.2609H8.03744C8.03744 2.22921 8.03744 2.19753 8.04103 2.16936C8.04461 2.02852 8.04821 1.8912 8.03385 1.76092C8.00872 1.52853 7.82564 1.36304 7.58154 1.35952C7.22615 1.35248 6.84923 1.34896 6.42205 1.35952C6.20308 1.36304 6.03077 1.4898 5.99846 1.66937C5.96974 1.8243 5.96256 1.98626 5.95897 2.15527C5.95538 2.18344 5.9518 2.22217 5.9518 2.2609Z" fill="#A0B1BB"/>
</svg>
