<svg width="18" height="17" viewBox="0 0 18 17" fill="none" xmlns="http://www.w3.org/2000/svg">
<path d="M11.163 11.9042C9.71497 11.9042 8.33232 11.9042 6.87493 11.9042C6.87493 12.5482 6.88428 13.1658 6.87493 13.7921C6.84691 15.3448 5.79124 16.5976 4.18437 16.9152C2.83909 17.1798 1.68066 16.8093 0.802488 15.8036C-0.0850236 14.7802 -0.234499 13.6157 0.344719 12.4159C0.905252 11.2513 1.90487 10.6073 3.26884 10.5368C3.9695 10.5015 4.67017 10.5279 5.40821 10.5279C5.40821 9.17814 5.40821 7.87246 5.40821 6.47856C4.75425 6.47856 4.09095 6.48739 3.42765 6.47856C1.76474 6.4521 0.428799 5.44637 0.101821 3.91132C-0.159761 2.65857 0.232612 1.56463 1.29763 0.752988C2.37198 -0.0674721 3.58647 -0.217449 4.83833 0.303058C6.0715 0.823565 6.77217 1.74989 6.86559 3.03793C6.9123 3.70841 6.87493 4.38771 6.87493 5.09349C8.3043 5.09349 9.69629 5.09349 11.163 5.09349C11.163 4.44065 11.163 3.77899 11.163 3.12615C11.1724 2.39391 11.4433 1.74989 11.9384 1.18527C12.9007 0.0913267 14.5075 -0.288026 15.8995 0.26777C17.3476 0.84121 18.1603 2.20864 17.9735 3.72605C17.8053 5.04055 16.6189 6.23154 15.1802 6.44328C14.6477 6.52268 14.0965 6.47856 13.5453 6.48739C13.2557 6.49621 12.9567 6.48739 12.6204 6.48739C12.6204 7.82835 12.6204 9.14285 12.6204 10.5191C13.265 10.5191 13.919 10.5103 14.5636 10.5191C16.2265 10.5368 17.5344 11.4984 17.8988 13.0158C18.1977 14.2773 17.824 15.3801 16.759 16.2182C15.6847 17.0651 14.4515 17.2239 13.1809 16.6946C11.9291 16.1741 11.2284 15.2213 11.1537 13.9156C11.135 13.2716 11.163 12.61 11.163 11.9042ZM6.9123 6.51385C6.9123 7.85482 6.9123 9.1605 6.9123 10.5015C8.33232 10.5015 9.71497 10.5015 11.135 10.5015C11.135 9.1605 11.135 7.85482 11.135 6.51385C9.71497 6.51385 8.32298 6.51385 6.9123 6.51385ZM5.38018 11.8777C4.72622 11.8777 4.09095 11.8777 3.45568 11.8777C3.31555 11.8777 3.17541 11.9042 3.04462 11.9307C2.12908 12.1071 1.43776 12.9364 1.47513 13.8098C1.52184 14.7802 2.29724 15.5389 3.34357 15.6271C4.24043 15.7065 5.24005 15.0625 5.36149 14.1979C5.46426 13.4569 5.38018 12.6894 5.38018 11.8777ZM5.38952 5.07584C5.38952 4.32596 5.45492 3.59372 5.37084 2.8703C5.26807 1.99691 4.32451 1.34407 3.39963 1.38818C2.37198 1.43229 1.56855 2.16453 1.47513 3.15261C1.39105 4.00836 2.07303 4.95233 2.97923 5.0582C3.77332 5.14642 4.58609 5.07584 5.38952 5.07584ZM12.6297 5.09349C13.4052 5.09349 14.1619 5.15524 14.8906 5.07584C15.8995 4.96998 16.6282 4.07012 16.5628 3.16144C16.4881 2.18218 15.694 1.44112 14.657 1.37936C13.6854 1.32643 12.7512 2.01456 12.6484 2.96735C12.5644 3.6643 12.6297 4.37007 12.6297 5.09349ZM12.6391 11.9307C12.6391 12.6717 12.5737 13.3951 12.6578 14.1009C12.7699 15.0096 13.6854 15.6712 14.629 15.6271C15.666 15.583 16.4974 14.8067 16.5628 13.8186C16.6189 12.9276 15.9276 12.0453 14.9653 11.9395C14.1992 11.8689 13.4238 11.9307 12.6391 11.9307Z" fill="black"/>
</svg>
