<svg width="19" height="15" viewBox="0 0 19 15" fill="none" xmlns="http://www.w3.org/2000/svg">
<path d="M9.5 14.9898C6.67484 14.9898 3.84967 14.9898 1.02451 14.9898C0.310458 14.9898 0.0103486 14.724 0.0103486 14.0086C0 10.3699 0 6.73126 0 3.08238C0 2.37714 0.28976 2.11139 1.02451 2.11139C3.67375 2.11139 6.33333 2.10117 8.98257 2.12161C9.33442 2.12161 9.62418 2.07051 9.82081 1.76388C10.7108 0.353391 11.963 -0.147435 13.6498 0.0365422C15.0779 0.189856 16.537 0.0672051 17.9858 0.0672051C18.6999 0.0672051 19 0.353391 19 1.05864C19 5.36165 19 9.67489 19 13.9779C19 14.7445 18.7206 15 17.9237 15C15.1193 14.9898 12.3045 14.9898 9.5 14.9898ZM17.3339 13.3851C17.3339 9.46025 17.3339 5.57629 17.3339 1.65145C16.268 1.65145 15.2228 1.75366 14.2086 1.63101C12.6667 1.43681 11.5076 1.87631 10.7004 3.20503C10.4521 3.60365 10.0588 3.71608 9.59314 3.71608C7.90632 3.69564 6.2195 3.70586 4.52233 3.70586C3.58061 3.70586 2.62854 3.70586 1.66612 3.70586C1.66612 6.96634 1.66612 10.1757 1.66612 13.3953C6.90251 13.3851 12.1182 13.3851 17.3339 13.3851Z" fill="#0B1C2D"/>
</svg>
