<svg width="16" height="16" viewBox="0 0 16 16" fill="none" xmlns="http://www.w3.org/2000/svg">
<path d="M0 7.93673C1.05666 7.0929 2.11333 6.24281 3.17624 5.41148C3.27003 5.34273 3.4576 5.29897 3.53888 5.34273C3.62642 5.38648 3.67018 5.56775 3.67644 5.68651C3.68894 6.20531 3.68269 6.72411 3.68269 7.27416C3.78898 7.28041 3.88277 7.29291 3.9703 7.29291C4.9832 7.29291 5.98984 7.29916 7.00274 7.29291C7.12778 7.29291 7.2966 7.34292 7.2966 7.12415C7.2966 5.99279 7.2966 4.86143 7.2966 3.68632C6.76514 3.68632 6.25869 3.69882 5.75225 3.68007C5.60844 3.67382 5.3771 3.61756 5.35209 3.54255C5.31458 3.41129 5.38335 3.21752 5.47089 3.09876C6.22118 2.12367 6.99023 1.16733 7.75303 0.204734C7.97186 -0.0640414 8.04064 -0.070292 8.25322 0.198484C9.02227 1.16733 9.79758 2.13617 10.5541 3.11751C10.6417 3.23002 10.7104 3.43004 10.6604 3.5363C10.6166 3.63006 10.4041 3.67382 10.2603 3.68007C9.76006 3.69882 9.25987 3.68632 8.73466 3.68632C8.73466 4.88643 8.73466 6.06155 8.73466 7.26791C9.91012 7.26791 11.0918 7.26791 12.3173 7.26791C12.3173 6.77411 12.3048 6.28032 12.3236 5.78652C12.3298 5.63651 12.4048 5.48024 12.4486 5.33023C12.6112 5.38023 12.7987 5.39273 12.9238 5.48649C13.9555 6.29282 14.9746 7.1179 16 7.93673C16 7.98048 16 8.01798 16 8.06174C14.9746 8.88057 13.9555 9.70565 12.9238 10.512C12.7987 10.612 12.6112 10.6245 12.4486 10.6745C12.4048 10.5245 12.3236 10.3745 12.3173 10.2182C12.2986 9.7244 12.3111 9.22435 12.3111 8.70555C11.1419 8.70555 10.0039 8.70555 8.87222 8.70555C8.65338 8.70555 8.7034 8.88057 8.7034 8.99933C8.69715 10.0307 8.7034 11.062 8.7034 12.0934C8.7034 12.1621 8.72216 12.2309 8.73466 12.3121C9.25987 12.3121 9.77257 12.3059 10.279 12.3184C10.4103 12.3246 10.6292 12.3747 10.6479 12.4559C10.6854 12.5747 10.6166 12.7559 10.5416 12.8747C10.4103 13.0872 10.2415 13.2747 10.0852 13.4685C9.40993 14.3123 8.72841 15.1562 8.05315 16C8.00938 16 7.97186 16 7.9281 16C7.10903 14.9749 6.2837 13.9561 5.47714 12.9247C5.38335 12.7997 5.37085 12.6122 5.32083 12.4497C5.47089 12.4059 5.62095 12.3246 5.77726 12.3246C6.2712 12.3059 6.76514 12.3184 7.25909 12.3184C7.25909 11.0933 7.25909 9.91192 7.25909 8.73055C6.05236 8.73055 4.87065 8.73055 3.67018 8.73055C3.67018 9.28686 3.67644 9.81816 3.67018 10.3495C3.66393 10.6995 3.47636 10.7995 3.18249 10.612C2.95741 10.462 2.75107 10.287 2.53849 10.1182C1.70066 9.43062 0.850332 8.7493 0 8.06174C0 8.01798 0 7.98048 0 7.93673Z" fill="#A0B1BB"/>
</svg>
