<svg width="18" height="22" viewBox="0 0 18 22" fill="none" xmlns="http://www.w3.org/2000/svg">
<path d="M8.99134 21.9883C5.35286 21.8697 2.56028 20.3808 0.972789 17.3168C-0.614698 14.2851 -0.23231 11.3181 1.92296 8.58856C2.1663 8.28647 2.23583 8.02754 2.15471 7.66072C1.32041 3.83067 4.59968 0.0437701 8.79435 0.000614609C12.4096 -0.0425409 15.3297 2.19076 15.8975 5.50294C16.0249 6.23659 15.8511 7.0026 15.8627 7.74703C15.8627 8.00596 15.9091 8.31884 16.0597 8.51304C18.1339 11.1239 18.5858 13.9722 17.2185 16.9499C15.8627 19.9061 13.3251 21.546 9.90675 21.9776C9.61706 22.0207 9.3042 21.9883 8.99134 21.9883ZM9.0261 20.3269C13.047 20.2837 16.2219 17.2952 16.1872 13.573C16.1524 9.89402 12.8616 6.95944 8.82911 7.0026C4.98206 7.04575 1.77233 10.1529 1.83026 13.7672C1.89979 17.4031 5.14429 20.37 9.0261 20.3269ZM3.8349 6.82997C7.33432 4.80167 10.741 4.83403 14.1478 6.78682C14.3679 5.12533 13.383 3.30201 11.726 2.38496C9.91834 1.38159 8.04116 1.38159 6.25669 2.42811C4.56491 3.39911 3.81173 4.88798 3.8349 6.82997Z" fill="#0B1C2D"/>
<path d="M8.0991 14.5656C8.0991 13.9506 8.14545 13.368 7.69354 12.7962C7.27639 12.2784 7.55449 11.5339 8.13386 11.1347C8.66689 10.7571 9.45484 10.7787 9.9531 11.1779C10.4977 11.6094 10.7179 12.3431 10.2891 12.8717C9.90675 13.3357 9.90675 13.8104 9.91834 14.3282C9.91834 14.7598 9.94151 15.1914 9.91834 15.6229C9.89516 16.1731 9.4896 16.5292 8.96816 16.5076C8.48149 16.486 8.13386 16.13 8.0991 15.6013C8.08751 15.4179 8.0991 15.2453 8.0991 15.0619C8.08751 14.8893 8.0991 14.7274 8.0991 14.5656Z" fill="#0B1C2D"/>
</svg>
