<svg width="20" height="17" viewBox="0 0 20 17" fill="none" xmlns="http://www.w3.org/2000/svg">
<path d="M0.257792 8.54956C0.257792 6.9016 0.244902 5.24125 0.257792 3.59329C0.270683 1.5984 1.66281 0.260204 3.73812 0.247813C5.63296 0.247813 7.51492 0.247813 9.40976 0.247813C11.3433 0.247813 12.7483 1.56122 12.7999 3.41983C12.8127 3.97741 12.7999 4.53499 12.7999 5.09257C12.7999 5.55102 12.7096 5.95991 12.1296 5.93513C11.5624 5.91035 11.4722 5.50146 11.4851 5.043C11.498 4.52259 11.498 4.01458 11.4851 3.49417C11.4593 2.32945 10.6859 1.52405 9.4871 1.51166C7.52781 1.48688 5.5814 1.48688 3.62211 1.51166C2.44911 1.52405 1.61125 2.29227 1.59836 3.41983C1.57258 6.80248 1.57258 10.1851 1.59836 13.5802C1.61125 14.7077 2.462 15.4636 3.635 15.4759C5.56851 15.4883 7.50203 15.4883 9.43554 15.4759C10.673 15.4636 11.4722 14.6706 11.4851 13.4811C11.4851 12.9235 11.4851 12.3659 11.4851 11.8083C11.4851 11.3746 11.6655 11.0649 12.1425 11.0525C12.6194 11.0401 12.8127 11.3622 12.7999 11.7959C12.7999 12.4526 12.8127 13.1217 12.787 13.7784C12.6967 15.4264 11.3175 16.7274 9.59022 16.7398C7.56648 16.7646 5.55562 16.7646 3.53188 16.7398C1.70148 16.7274 0.283573 15.352 0.270683 13.5802C0.244902 11.895 0.257792 10.2223 0.257792 8.54956Z" fill="white"/>
<path d="M6.56106 17C5.56852 17 4.56309 17 3.53189 16.9876C1.57259 16.9752 0.0257802 15.4759 0.0128901 13.5802C0 12.4155 0 11.2383 0 10.0984C0 9.57799 0 9.06997 0 8.54956C0 8.05394 0 7.55831 0 7.06268C0 5.93513 0 4.75802 0 3.60569C0.0257802 1.4621 1.52103 0.0123907 3.73813 0C5.52985 0 7.38602 0 9.40977 0C11.498 0 12.9932 1.41254 13.0577 3.40743C13.0706 3.74198 13.0706 4.07653 13.0577 4.39869C13.0577 4.62172 13.0577 4.85714 13.0577 5.08017C13.0577 5.34038 13.0319 5.72449 12.7741 5.95991C12.6065 6.1086 12.3874 6.18294 12.1038 6.17055C11.498 6.14577 11.2015 5.76166 11.2144 5.03061C11.2273 4.52259 11.2273 4.01458 11.2144 3.49417C11.1886 2.45335 10.5054 1.75948 9.47422 1.74708C7.56649 1.7223 5.5943 1.7223 3.62212 1.74708C2.57802 1.75948 1.86906 2.42857 1.85617 3.40743C1.83039 6.81487 1.83039 10.2223 1.85617 13.5554C1.86906 14.5219 2.59091 15.191 3.63501 15.2034C5.47829 15.2157 7.4247 15.2157 9.43555 15.2034C10.5183 15.191 11.2144 14.5095 11.2273 13.4563C11.2273 13.0722 11.2273 12.7004 11.2273 12.3163C11.2273 12.1429 11.2273 11.957 11.2273 11.7835C11.2273 11.164 11.5624 10.7923 12.1296 10.7799C12.4003 10.7799 12.6194 10.8542 12.7741 11.0029C12.9545 11.1764 13.0448 11.4366 13.0448 11.7711C13.0448 11.957 13.0448 12.1552 13.0448 12.3411C13.0448 12.812 13.0448 13.2952 13.0319 13.766C12.9417 15.5379 11.4206 16.938 9.59023 16.9628C8.61058 16.9876 7.59227 17 6.56106 17ZM6.84464 0.495627C5.77476 0.495627 4.75645 0.495627 3.75102 0.495627C1.80461 0.508017 0.541384 1.7223 0.528494 3.59329C0.515604 4.75802 0.515604 5.92274 0.515604 7.06268C0.515604 7.55831 0.515604 8.05394 0.515604 8.54956C0.515604 9.06997 0.515604 9.57799 0.515604 10.0984C0.515604 11.2383 0.515604 12.4155 0.528494 13.5678C0.541384 15.2157 1.84328 16.4672 3.54478 16.4796C5.64586 16.5044 7.66961 16.5044 9.59023 16.4796C11.1628 16.4672 12.4518 15.2653 12.5292 13.7536C12.555 13.2952 12.555 12.812 12.5421 12.3535C12.5421 12.1676 12.5421 11.9694 12.5421 11.7835C12.5421 11.6472 12.5163 11.4738 12.4261 11.3746C12.3616 11.3127 12.2714 11.2879 12.1425 11.3003C12.0136 11.3003 11.7429 11.3127 11.7429 11.8083C11.7429 11.9818 11.7429 12.1676 11.7429 12.3411C11.7429 12.7252 11.7429 13.1093 11.7429 13.4811C11.73 14.8192 10.8019 15.7114 9.43555 15.7238C7.43758 15.7362 5.47829 15.7362 3.63501 15.7238C2.29444 15.7114 1.35346 14.8316 1.34057 13.5802C1.31479 10.2471 1.31479 6.82726 1.34057 3.41983C1.35346 2.16837 2.28155 1.27624 3.62212 1.26385C5.5943 1.23907 7.57938 1.23907 9.48711 1.26385C10.8148 1.27624 11.7171 2.18076 11.7429 3.49417C11.7558 4.01458 11.7558 4.54738 11.7429 5.05539C11.73 5.62536 11.9104 5.68732 12.1425 5.68732C12.3358 5.69971 12.4003 5.63775 12.4261 5.61297C12.5163 5.53863 12.555 5.36516 12.555 5.09257C12.555 4.86953 12.555 4.63411 12.555 4.41108C12.555 4.08892 12.555 3.75437 12.555 3.43222C12.4905 1.70991 11.2015 0.508017 9.40977 0.495627C8.52035 0.495627 7.66961 0.495627 6.84464 0.495627Z" fill="white"/>
<path d="M16.3704 7.6822C15.7388 7.09983 15.1072 6.51747 14.4756 5.93511C14.1146 5.61295 13.9471 5.24123 14.3467 4.86951C14.7205 4.52257 15.0814 4.72083 15.4036 5.03059C16.3833 5.98467 17.3758 6.92637 18.3555 7.88045C18.8453 8.36368 18.8453 8.64867 18.3426 9.13191C17.3758 10.0736 16.3962 11.0029 15.4294 11.9322C15.0943 12.2544 14.7205 12.4774 14.3209 12.0933C13.9213 11.7092 14.1404 11.3498 14.4885 11.0277C15.1072 10.4577 15.713 9.87535 16.306 9.13191C16.0868 9.13191 15.8806 9.13191 15.6615 9.13191C12.8901 9.13191 10.1187 9.13191 7.34734 9.13191C7.12821 9.13191 6.87041 9.18147 6.71573 9.08234C6.4966 8.93366 6.21302 8.67345 6.21302 8.4752C6.21302 8.27695 6.50949 8.02914 6.74151 7.89284C6.8833 7.8061 7.11532 7.85567 7.30867 7.85567C10.0543 7.85567 12.8127 7.85567 15.5583 7.85567C15.7904 7.85567 16.0224 7.85567 16.2544 7.85567C16.3188 7.8061 16.3446 7.74415 16.3704 7.6822Z" fill="white"/>
<path d="M14.7849 12.5517C14.5658 12.5517 14.3467 12.4526 14.1662 12.2791C13.9729 12.0933 13.8826 11.8826 13.8826 11.672C13.8826 11.3251 14.1404 11.0401 14.3467 10.8666C14.8494 10.4082 15.3392 9.93731 15.8033 9.40451H14.0889C11.8589 9.40451 9.61602 9.40451 7.38603 9.40451C7.33447 9.40451 7.28291 9.40451 7.23135 9.40451C7.02511 9.4169 6.79309 9.42929 6.61263 9.30538C6.50951 9.24343 5.9939 8.8841 6.00679 8.4876C6.00679 8.23979 6.22593 7.96719 6.63841 7.6946C6.80598 7.58308 7.02511 7.59547 7.20557 7.60786C7.25713 7.60786 7.30869 7.60786 7.34736 7.62025C9.5129 7.62025 11.6913 7.62025 13.8569 7.62025H15.9322L15.6357 7.34766C15.1974 6.93877 14.7592 6.52987 14.3209 6.13337C14.0244 5.86078 13.8826 5.60057 13.8826 5.34037C13.8826 5.11734 13.9858 4.9067 14.192 4.70845C14.4885 4.43585 14.9783 4.24999 15.6099 4.86952C16.0868 5.34037 16.5767 5.81121 17.0665 6.26967C17.5692 6.75291 18.0719 7.23614 18.5746 7.71938C19.1676 8.30174 19.1676 8.73541 18.5617 9.31777C18.0461 9.80101 17.5305 10.2842 17.0278 10.7799C16.5638 11.2259 16.0997 11.672 15.6357 12.1181C15.4423 12.3039 15.133 12.5517 14.7849 12.5517ZM7.37314 8.89649C9.60313 8.89649 11.846 8.89649 14.076 8.89649H16.8474L16.538 9.29299C15.9451 10.0364 15.3263 10.6312 14.6947 11.2135C14.5014 11.3994 14.3982 11.5481 14.3982 11.672C14.3982 11.6968 14.3982 11.7959 14.54 11.9322C14.6818 12.0685 14.7721 12.0685 14.7978 12.0685C14.9267 12.0685 15.0814 11.9694 15.2877 11.7711C15.7517 11.3251 16.2157 10.879 16.6798 10.4205C17.1825 9.93731 17.6981 9.45407 18.2008 8.95845C18.6133 8.56194 18.6133 8.43804 18.2137 8.05393C17.711 7.57069 17.2083 7.08745 16.7185 6.60422C16.2286 6.13337 15.7517 5.67492 15.2619 5.20407C14.8752 4.81996 14.7076 4.91909 14.5658 5.05538C14.4627 5.15451 14.4111 5.24124 14.4111 5.32798C14.4111 5.45189 14.5014 5.60057 14.6947 5.77404C15.133 6.18293 15.5712 6.59183 16.0224 7.00072L16.7313 7.65742L16.4864 8.12827H13.8955C11.73 8.12827 9.55157 8.12827 7.38603 8.12827C7.33447 8.12827 7.27002 8.12827 7.20557 8.11588C7.12823 8.11588 6.99933 8.10349 6.96066 8.11588C6.66419 8.31413 6.56107 8.46282 6.54818 8.49999C6.54818 8.56194 6.70286 8.7478 6.93488 8.89649C6.97355 8.92127 7.14112 8.92127 7.24424 8.90888C7.25713 8.89649 7.30869 8.89649 7.37314 8.89649Z" fill="white"/>
</svg>
