<svg width="82" height="30" viewBox="0 0 82 30" fill="none" xmlns="http://www.w3.org/2000/svg">
<path d="M31.5409 4.75073C33.1178 4.75073 34.5194 5.98241 34.9574 7.30205L39.5127 5.19062C38.4615 2.72727 36.1838 0.0879765 31.5409 0.0879765C26.0219 0.0879765 21.9046 3.78299 21.9046 9.14956C21.9046 14.5161 26.0219 18.2111 31.5409 18.2111C36.0962 18.2111 38.4615 15.3959 39.5127 13.1085L34.9574 10.9971C34.5194 12.4047 33.1178 13.5484 31.5409 13.5484C29.0004 13.5484 27.2484 11.6129 27.2484 9.14956C27.336 6.68622 29.0004 4.75073 31.5409 4.75073ZM52.9159 8.79765L49.8499 0.351906H42.4912V17.9472H47.835V7.39003L51.7771 17.9472H54.1424L58.0845 7.39003V17.9472H63.4282V0.351906H56.0696L52.9159 8.79765ZM72.1009 5.36657C72.1009 4.92669 72.3637 4.57478 73.4149 4.57478C75.0794 4.57478 77.0066 5.19062 78.5835 6.33431L81.4744 2.55132C79.4595 0.879765 76.919 0.0879765 74.0282 0.0879765C69.21 0.0879765 66.7571 2.90323 66.7571 5.89443C66.7571 12.8446 76.5686 11.085 76.5686 12.8446C76.5686 13.5484 75.605 13.8123 74.6414 13.8123C72.2761 13.8123 70.3489 12.8446 69.0348 11.5249L66.3191 15.4839C68.1588 17.1554 70.6993 18.2991 74.4662 18.2991C79.1967 18.2991 82 16.0997 82 12.1408C81.8248 5.6305 72.1009 7.03812 72.1009 5.36657ZM10.5163 0C5.87335 0 2.54446 1.93548 0.96761 5.36657C-0.609236 8.79765 -0.258826 12.1408 2.01884 15.2199C3.33288 16.9795 4.82212 17.3314 6.22376 16.2757C7.5378 15.3079 7.4502 13.9003 6.13616 12.2287C4.38411 10.0293 5.08493 6.77419 7.62541 5.54252C9.55266 4.57478 11.9179 5.01466 13.232 6.68622C14.6336 8.44575 14.6336 10.8211 12.9692 12.4047C11.3047 14.1642 9.55266 15.7478 7.88821 17.4194C6.92459 18.4751 6.92459 19.9707 7.88821 20.9384C8.85184 21.8182 10.3411 21.9941 11.3923 21.0264C13.3196 19.1789 15.3344 17.4194 17.0865 15.3959C19.627 12.4047 20.065 8.97361 18.4005 5.45455C16.6485 1.93548 13.67 0.175953 10.5163 0ZM9.64027 24.6334C8.15102 24.6334 6.92459 25.8651 6.92459 27.3607C6.92459 28.7683 8.15102 29.912 9.64027 30C11.2171 30 12.3559 28.8563 12.4435 27.3607C12.3559 25.8651 11.1295 24.6334 9.64027 24.6334Z" fill="white"/>
</svg>
