<svg width="20" height="20" viewBox="0 0 20 20" fill="none" xmlns="http://www.w3.org/2000/svg">
<path d="M1.05464e-05 10C-0.00796069 4.49405 4.50376 -0.0158941 10.0039 4.21043e-05C15.5359 0.0159783 19.96 4.45421 19.9998 10.0159C20.0317 15.4422 15.52 19.9761 10.0517 20C4.51173 20.0159 0.00798178 15.5378 1.05464e-05 10ZM10.0039 1.2351C5.1016 1.26697 1.1957 5.21914 1.23555 10.1116C1.26744 14.9004 5.27697 18.8047 10.1155 18.7569C14.8504 18.7171 18.7962 14.7251 18.7723 10C18.7404 5.1554 14.7866 1.19526 10.0039 1.2351Z" fill="black"/>
<path d="M9.37431 10.622C8.34602 10.622 7.3815 10.638 6.41698 10.6141C6.20175 10.6061 5.93073 10.5025 5.80319 10.3511C5.69159 10.2157 5.65174 9.881 5.74739 9.74554C5.85899 9.57024 6.13798 9.40291 6.34523 9.38698C7.19019 9.34713 8.04311 9.37104 8.89603 9.37104C9.03951 9.37104 9.183 9.37104 9.38228 9.37104C9.38228 8.90889 9.38228 8.47861 9.38228 8.04834C9.38228 7.47463 9.37431 6.9089 9.39025 6.33519C9.39822 5.92882 9.66924 5.64994 10.02 5.64994C10.3627 5.64994 10.6338 5.93679 10.6417 6.33519C10.6497 7.09216 10.6417 7.84913 10.6417 8.6061C10.6417 8.84515 10.6417 9.07622 10.6417 9.37104C10.9367 9.37104 11.2157 9.37104 11.4867 9.37104C12.2041 9.37104 12.9215 9.37104 13.6389 9.37104C14.0773 9.37901 14.3643 9.62602 14.3643 9.99255C14.3643 10.3591 14.0773 10.6141 13.6389 10.6141C12.6585 10.622 11.678 10.6141 10.6417 10.6141C10.6417 11.0364 10.6417 11.4268 10.6417 11.8172C10.6417 12.4308 10.6497 13.0364 10.6417 13.6499C10.6338 14.0563 10.3627 14.3352 10.012 14.3352C9.66127 14.3352 9.39822 14.0563 9.39025 13.6499C9.36633 12.6619 9.37431 11.6738 9.37431 10.622Z" fill="black"/>
</svg>
