<svg width="16" height="16" viewBox="0 0 16 16" fill="none" xmlns="http://www.w3.org/2000/svg">
<path d="M2.35409 10.8741C2.32151 10.8024 2.30848 10.7698 2.30196 10.7438C2.17815 10.1897 1.89142 9.92897 1.26584 10.0007C0.790143 10.0528 0.46432 9.68779 0.275343 9.27712C-0.0895791 8.4558 -0.0895791 7.6084 0.26231 6.78056C0.477353 6.27864 0.86834 5.96575 1.42876 6.01138C1.86536 6.04397 2.12602 5.92012 2.21073 5.48339C2.23028 5.37909 2.28893 5.28783 2.35409 5.13791C2.22376 5.02058 2.0804 4.90324 1.94356 4.77939C1.55257 4.41436 1.44831 3.95807 1.63077 3.46918C1.96311 2.57616 2.58869 1.9569 3.48796 1.63098C4.00927 1.44195 4.46543 1.58535 4.84338 1.99601C4.95416 2.11987 5.11707 2.31542 5.22785 2.29586C5.47548 2.25675 5.71658 2.11987 5.93814 1.99601C5.99028 1.96342 5.99679 1.82002 5.99679 1.72876C6.01634 0.640177 6.44643 0.183885 7.54119 0.0339609C8.06903 -0.037742 8.58383 0.00136868 9.07908 0.177367C9.75027 0.41855 10.0174 0.809657 10.0174 1.52669C10.0174 1.67009 10.0174 1.80698 10.0174 1.96994C10.252 2.07424 10.4866 2.17853 10.7277 2.26979C10.7864 2.28934 10.8841 2.25675 10.9493 2.23068C11.0079 2.2046 11.047 2.14594 11.0861 2.09379C11.6466 1.43543 12.2461 1.35069 13.1128 1.89172C13.6732 2.24372 14.1163 2.72608 14.3574 3.35185C14.5659 3.89288 14.5073 4.3948 14.0511 4.81199C13.9273 4.92932 13.7253 5.07924 13.7383 5.19657C13.7644 5.44427 13.8947 5.68546 14.012 5.92012C14.0381 5.97227 14.1815 5.98531 14.2727 5.99182C15.4457 6.03094 15.9865 6.55241 15.9996 7.74529C16.0061 8.22114 15.9409 8.72306 15.7975 9.17935C15.6086 9.77904 15.185 10.0137 14.5529 10.0202C14.377 10.0202 14.1163 9.98763 14.0316 10.0854C13.8752 10.2744 13.8035 10.5482 13.7253 10.7959C13.7058 10.8546 13.797 10.9654 13.8622 11.0306C14.6246 11.8193 14.6897 12.4581 13.9795 13.3055C13.6471 13.7032 13.217 14.0486 12.7674 14.3028C12.1679 14.6483 11.6661 14.5114 11.1774 14.0226C11.0666 13.9117 10.9167 13.7162 10.819 13.7357C10.5583 13.7814 10.3107 13.9117 10.0696 14.0291C10.024 14.0486 10.024 14.1855 10.024 14.2703C9.9979 15.3914 9.63298 15.8477 8.51215 15.9781C8.0169 16.0368 7.48906 15.9716 7.00684 15.8542C6.30307 15.6848 6.00983 15.2089 5.99679 14.4854C5.99679 14.3289 6.01634 14.0943 5.93163 14.0291C5.72962 13.8857 5.46896 13.8074 5.22133 13.7292C5.16269 13.7097 5.05842 13.814 4.99326 13.8791C4.24387 14.6027 3.6639 14.6548 2.81024 14.0486C2.30196 13.6901 1.89142 13.2338 1.66986 12.6341C1.46785 12.1061 1.55257 11.6368 1.96962 11.2327C2.08692 11.1153 2.21725 10.998 2.35409 10.8741ZM7.35873 12.9796C7.35873 13.2729 7.35873 13.5337 7.35873 13.7944C7.36525 14.694 7.44345 14.7591 8.35575 14.6483C8.36878 14.6483 8.3753 14.6483 8.38833 14.6483C8.59034 14.6288 8.69461 14.5506 8.68157 14.3159C8.66202 13.9704 8.68809 13.6184 8.67506 13.2729C8.66854 13.0643 8.73371 12.9796 8.94223 12.9209C9.45052 12.771 9.95228 12.6015 10.428 12.3734C11.1122 12.0409 11.0992 12.0149 11.6466 12.5755C12.2656 13.2077 12.422 13.1882 12.9564 12.4581C12.9694 12.4386 12.9824 12.4255 12.9955 12.406C13.1128 12.2626 13.1062 12.1518 12.9629 12.0149C12.7022 11.7737 12.4611 11.4999 12.2005 11.2587C12.0441 11.1153 12.0441 11.011 12.1418 10.822C12.3894 10.3527 12.6371 9.88334 12.813 9.38142C13.0541 8.67091 13.0281 8.66439 13.784 8.65787C14.7288 8.65135 14.7484 8.62528 14.6637 7.6801C14.6441 7.4324 14.5659 7.31507 14.2922 7.32811C13.8622 7.35418 13.4321 7.33463 12.989 7.33463C12.8456 6.50678 12.5458 5.78323 12.1157 5.10532C12.0701 5.04013 12.1092 4.85761 12.1744 4.78591C12.4285 4.50562 12.7153 4.2514 12.9694 3.97111C13.0281 3.90592 13.0737 3.72992 13.0346 3.67777C12.7869 3.39096 12.5198 3.12371 12.1939 2.79127C11.7769 3.24756 11.4315 3.63215 11.1448 3.93851C10.2846 3.58652 9.49613 3.25408 8.66854 2.91512C8.66854 2.68045 8.66854 2.40016 8.66854 2.11986C8.67506 1.37024 8.49911 1.22032 7.73669 1.34417C7.7041 1.35069 7.67152 1.36372 7.63894 1.36372C7.41086 1.37676 7.32615 1.48106 7.33918 1.72224C7.35873 2.14594 7.3457 2.56964 7.3457 2.92163C6.52463 3.28015 5.73613 3.61259 4.8499 3.97762C4.56317 3.66474 4.21128 3.28015 3.80726 2.83689C3.47492 3.17585 3.18168 3.48222 2.84934 3.8277C3.29246 4.23836 3.6639 4.59036 3.97669 4.87717C3.6248 5.72457 3.29898 6.5133 2.96012 7.34114C2.72553 7.34114 2.43229 7.34114 2.13905 7.34114C1.37662 7.33463 1.33101 7.38025 1.37662 8.15595C1.38314 8.24069 1.40269 8.32543 1.40921 8.41017C1.42224 8.59921 1.51347 8.66439 1.70245 8.65787C2.14557 8.64483 2.58869 8.65135 2.94709 8.65135C3.29898 9.49875 3.63132 10.294 3.99624 11.1675C3.68345 11.4608 3.29898 11.8193 2.87541 12.2235C3.1491 12.4907 3.39673 12.7449 3.65087 12.9861C3.77468 13.1035 3.88546 13.0904 4.00927 12.96C4.26993 12.6798 4.53711 12.4125 4.81731 12.1583C4.88899 12.0931 5.06494 12.054 5.1301 12.0996C5.80782 12.5363 6.53114 12.8362 7.35873 12.9796Z" fill="#A0B1BB"/>
<path d="M11.034 7.99299C11.047 9.66171 9.69814 11.0176 8.02341 11.0241C6.38778 11.0306 5.03236 9.68127 5.01932 8.05165C5.00629 6.38945 6.3552 5.01406 8.0169 5.00754C9.66556 5.00102 11.021 6.34382 11.034 7.99299ZM6.37475 7.98647C6.36823 8.92513 7.09156 9.67475 8.02341 9.68779C8.90965 9.70082 9.69162 8.93165 9.69814 8.03862C9.70466 7.13255 8.96178 6.37641 8.05599 6.36338C7.12414 6.35034 6.38126 7.07389 6.37475 7.98647Z" fill="#A0B1BB"/>
</svg>
