<svg width="19" height="22" viewBox="0 0 19 22" fill="none" xmlns="http://www.w3.org/2000/svg">
<path d="M15.527 7.74924C14.7933 7.75915 14.0792 7.47173 13.4727 6.92664C13.277 6.75816 13.1499 6.73833 12.9249 6.86718C11.2227 7.87808 9.5205 8.86916 7.80855 9.86024C7.58355 9.98908 7.5542 10.1179 7.59333 10.3756C7.65203 10.7621 7.69116 11.1784 7.59333 11.555C7.4955 11.9514 7.65203 12.0703 7.93572 12.2388C9.55964 13.1804 11.1835 14.1219 12.7977 15.0832C13.0912 15.2616 13.2672 15.2715 13.5509 15.0238C14.6662 14.0624 16.2999 14.003 17.5031 14.8256C18.7455 15.6779 19.2738 17.224 18.814 18.6511C18.364 20.0783 17.014 21.0396 15.5466 21C13.5118 20.9405 12.0053 19.0476 12.377 16.9861C12.4259 16.6987 12.3672 16.5798 12.1325 16.441C10.4499 15.4698 8.77703 14.4886 7.1042 13.4975C6.84007 13.3389 6.69333 13.3786 6.46833 13.5669C5.34333 14.5084 3.87593 14.6273 2.64333 13.9038C1.49876 13.2299 0.813976 11.8226 1.02919 10.5639C1.28354 9.05746 2.29115 7.95736 3.74876 7.68977C4.75637 7.49156 5.68572 7.74924 6.47811 8.43308C6.70311 8.6313 6.85963 8.65112 7.11398 8.49255C8.76724 7.50147 10.4303 6.53021 12.1031 5.56886C12.377 5.41029 12.4259 5.27154 12.377 4.95439C12.064 2.95241 13.4629 1.14864 15.4194 0.99998C17.3662 0.851318 19.0292 2.46678 18.9999 4.46876C18.9607 6.29235 17.4249 7.77897 15.527 7.74924ZM17.4444 4.38947C17.4444 3.34884 16.6716 2.56589 15.664 2.56589C14.6368 2.56589 13.8151 3.39839 13.8346 4.41921C13.8542 5.41029 14.6759 6.23288 15.664 6.23288C16.652 6.22297 17.4444 5.40038 17.4444 4.38947ZM17.4444 17.6303C17.4444 16.5996 16.6227 15.7671 15.6151 15.7869C14.6564 15.7968 13.8444 16.6194 13.8346 17.5907C13.8151 18.6214 14.6368 19.4539 15.6542 19.444C16.6618 19.444 17.4444 18.6511 17.4444 17.6303ZM2.53572 10.9702C2.52593 12.0307 3.30854 12.8335 4.33572 12.8335C5.33355 12.8335 6.13572 12.0208 6.1455 11.0198C6.15528 10.0188 5.36289 9.20612 4.35528 9.1863C3.35746 9.15657 2.5455 9.95935 2.53572 10.9702Z" fill="black"/>
</svg>
