<svg width="21" height="17" viewBox="0 0 21 17" fill="none" xmlns="http://www.w3.org/2000/svg">
<path d="M6.32375 11.0955C6.24 10.9316 6.17718 10.789 6.10041 10.6536C5.96082 10.4113 5.75841 10.1903 5.66768 9.92657C5.26985 8.78611 4.48815 7.80246 4.34856 6.56934C4.31367 6.23433 4.42534 5.87794 4.48117 5.52867C4.50909 5.34335 4.55795 5.16515 4.57889 4.97982C4.6417 4.36683 4.62774 3.73957 4.76733 3.14796C5.14422 1.50854 6.61689 0.28255 8.26404 0.225526C8.9899 0.204143 9.7367 0.211271 10.4416 0.375212C12.0469 0.745862 13.1497 2.12154 13.2962 3.78947C13.3311 4.21714 13.3311 4.64481 13.3521 5.06536C13.359 5.19366 13.38 5.32909 13.4288 5.44314C13.8267 6.4054 13.5614 7.26787 13.0729 8.10896C12.9403 8.33706 12.8426 8.59366 12.7239 8.83601C12.5075 9.30645 12.3051 9.77689 12.0748 10.2402C11.9352 10.5253 11.7607 10.789 11.6142 11.0456C12.8565 11.4805 14.0709 11.8796 15.2574 12.3429C15.8158 12.5568 16.3462 12.8704 16.8557 13.1983C17.3722 13.5333 17.7212 14.0322 17.7212 14.6951C17.7212 15.3509 17.2815 15.9354 16.5417 16.1635C15.9554 16.3417 15.3412 16.4557 14.734 16.527C11.3141 16.8976 7.88017 16.8264 4.45326 16.6553C3.49707 16.6054 2.54089 16.4343 1.59866 16.2347C0.886757 16.0851 0.34934 15.6645 0.22371 14.8591C0.146936 14.353 0.314443 13.8968 0.670395 13.5689C1.04728 13.2268 1.46605 12.8775 1.91972 12.6922C3.24581 12.1505 4.59982 11.6943 5.93988 11.2096C6.05853 11.174 6.1702 11.1454 6.32375 11.0955ZM8.69676 15.7358C10.5114 15.6645 12.0678 15.636 13.6243 15.5362C14.4339 15.4863 15.2365 15.3366 16.0322 15.1798C16.2485 15.1371 16.5556 14.9303 16.5975 14.745C16.6324 14.5668 16.3951 14.3102 16.2485 14.1178C16.1578 14.0037 16.0112 13.9253 15.8786 13.8612C15.5017 13.6758 15.1318 13.4691 14.741 13.3266C13.5684 12.9132 12.3889 12.5282 11.2094 12.1291C10.637 11.9366 10.3718 11.4947 10.5673 10.9173C10.7138 10.4754 10.9651 10.0691 11.1675 9.64146C11.342 9.28506 11.5025 8.92154 11.677 8.55802C11.8515 8.18737 12.005 7.80246 12.2074 7.4532C12.4447 7.03978 12.6681 6.55509 12.5006 6.14167C12.2284 5.47878 12.2842 4.81588 12.2493 4.15299C12.1795 2.72741 11.321 1.67249 9.974 1.38737C9.24116 1.23056 8.48738 1.2163 7.76152 1.44439C6.65178 1.78653 5.90498 2.51358 5.75841 3.73957C5.70258 4.17437 5.71654 4.6163 5.68164 5.0511C5.6607 5.28632 5.65372 5.5358 5.56299 5.74251C5.25589 6.41966 5.45132 7.00414 5.82821 7.56724C5.96082 7.77395 6.11437 7.98779 6.16322 8.22301C6.30281 8.90016 6.65178 9.47039 7.01471 10.0406C7.11941 10.2117 7.21014 10.3899 7.28691 10.5752C7.62891 11.4092 7.37765 11.9153 6.53313 12.2004C5.24193 12.628 3.95772 13.07 2.68746 13.5547C2.28265 13.7043 1.89878 13.9681 1.56376 14.2461C1.15198 14.5882 1.22875 14.909 1.71731 15.1228C1.80107 15.1584 1.8918 15.1941 1.98253 15.2083C2.51995 15.301 3.05737 15.4364 3.59478 15.4721C5.37454 15.579 7.16128 15.6574 8.69676 15.7358Z" fill="white"/>
<path d="M9.311 16.9955C7.60802 16.9955 5.96087 16.9313 4.4533 16.86C3.45524 16.8101 2.47114 16.6248 1.56381 16.4395C0.698361 16.2613 0.146984 15.7053 0.0213538 14.8856C-0.069379 14.3082 0.119066 13.7808 0.537833 13.403C0.907744 13.068 1.34745 12.6902 1.84997 12.4835C2.81313 12.0915 3.8112 11.7351 4.78134 11.3929C5.14427 11.2646 5.51418 11.1292 5.87711 11.0009C5.92597 10.9866 5.97482 10.9653 6.02368 10.951C5.98878 10.8797 5.96087 10.8156 5.92597 10.7586C5.87711 10.6802 5.82826 10.6017 5.77242 10.5233C5.66075 10.3594 5.5421 10.1955 5.4723 9.99587C5.32574 9.58246 5.12333 9.1833 4.92791 8.79126C4.58591 8.10699 4.22996 7.40132 4.13923 6.59587C4.11131 6.32502 4.16017 6.05416 4.216 5.79755C4.23694 5.69063 4.25788 5.59797 4.27184 5.49818C4.2858 5.41265 4.29976 5.33424 4.32069 5.2487C4.34163 5.14891 4.36257 5.04912 4.36955 4.95646C4.39049 4.75688 4.40445 4.54304 4.41841 4.34346C4.44632 3.93005 4.46726 3.5095 4.56498 3.09608C4.9628 1.36401 6.51922 0.0667351 8.2571 0.00971203C8.94109 -0.0116716 9.73675 -0.0116716 10.4835 0.159398C12.1586 0.544303 13.3381 1.96275 13.4987 3.76611C13.5196 4.02271 13.5266 4.27931 13.5336 4.53592C13.5405 4.70699 13.5405 4.88518 13.5545 5.05625C13.5615 5.17743 13.5824 5.28434 13.6173 5.36275C14.0989 6.53885 13.6383 7.55814 13.2474 8.22103C13.1567 8.37784 13.0799 8.54179 13.0031 8.71998C12.9752 8.79126 12.9403 8.85541 12.9124 8.92669C12.8426 9.08351 12.7728 9.24032 12.703 9.39C12.5634 9.70363 12.4169 10.0244 12.2633 10.3309C12.1656 10.5376 12.0469 10.73 11.9353 10.9154C11.9353 10.9154 11.9353 10.9225 11.9283 10.9225C12.2075 11.0223 12.4867 11.1149 12.7658 11.2147C13.6522 11.5212 14.4898 11.8064 15.3412 12.1414C15.8368 12.3338 16.3533 12.6118 16.9744 13.0181C17.6026 13.4315 17.9376 14.0089 17.9376 14.7003C17.9376 15.4701 17.4141 16.1259 16.6115 16.3753C16.0462 16.5464 15.425 16.6747 14.7689 16.746C12.9333 16.9242 11.0908 16.9955 9.311 16.9955ZM8.80848 0.423129C8.62004 0.423129 8.43857 0.430257 8.27106 0.430257C6.71465 0.480152 5.33272 1.642 4.97676 3.18162C4.88603 3.5594 4.85811 3.95143 4.83717 4.36485C4.82322 4.57156 4.80926 4.78539 4.78832 4.99923C4.77436 5.11327 4.75342 5.22732 4.73248 5.33424C4.71852 5.41265 4.70456 5.48392 4.69061 5.5552C4.67665 5.66212 4.65571 5.76904 4.62779 5.87596C4.57893 6.11118 4.53706 6.33214 4.558 6.53885C4.64175 7.27302 4.9628 7.91453 5.3048 8.59168C5.5072 8.99084 5.71658 9.41139 5.87013 9.84619C5.91899 9.98874 6.0167 10.1242 6.11441 10.2739C6.17025 10.3594 6.23306 10.4449 6.2889 10.5376C6.34474 10.6374 6.39359 10.73 6.44245 10.837C6.46339 10.8869 6.4913 10.9368 6.51224 10.9866L6.62391 11.2147L6.37963 11.286C6.3238 11.3003 6.27494 11.3145 6.23306 11.3288C6.14931 11.3502 6.07952 11.3716 6.0167 11.3929C5.65377 11.5284 5.28386 11.6567 4.91395 11.7921C3.95078 12.1342 2.9597 12.4906 2.00352 12.8827C1.56381 13.0609 1.159 13.4101 0.810032 13.7238C0.495956 14.0017 0.363347 14.3938 0.426162 14.8214C0.523874 15.4701 0.935662 15.8764 1.63361 16.0189C2.52698 16.2043 3.48316 16.3825 4.46028 16.4324C7.53124 16.582 11.1536 16.689 14.7061 16.304C15.3412 16.2328 15.9345 16.1187 16.4719 15.9548C17.107 15.7623 17.4979 15.2776 17.4979 14.6931C17.4979 14.1514 17.2397 13.7095 16.7302 13.3745C16.1299 12.9825 15.6344 12.7187 15.1668 12.5405C14.3292 12.2126 13.4917 11.9275 12.6123 11.621C12.2563 11.4999 11.8934 11.3716 11.5305 11.2433L11.2862 11.1577L11.4188 10.9296C11.4677 10.8512 11.5095 10.7728 11.5584 10.6873C11.6631 10.5091 11.7747 10.3238 11.8725 10.1384C12.026 9.83193 12.1656 9.5183 12.3052 9.20468C12.375 9.04786 12.4448 8.89105 12.5215 8.73424C12.5495 8.67009 12.5844 8.59881 12.6123 8.53466C12.6891 8.35646 12.7728 8.16401 12.8775 7.99294C13.4289 7.05206 13.5336 6.28938 13.2195 5.51956C13.1706 5.39839 13.1357 5.24158 13.1288 5.07051C13.1218 4.89231 13.1148 4.71411 13.1078 4.54304C13.1008 4.3007 13.0939 4.04409 13.0729 3.80174C12.9333 2.18372 11.8725 0.922081 10.3858 0.572815C9.87634 0.451641 9.32496 0.423129 8.80848 0.423129ZM8.69681 15.9334H8.68983C8.27804 15.912 7.8523 15.8906 7.40561 15.8692C6.16327 15.8122 4.88603 15.7481 3.57389 15.6625C3.17607 15.634 2.78522 15.5627 2.40135 15.4843C2.2478 15.4558 2.08727 15.4202 1.93372 15.3988C1.83601 15.3846 1.73132 15.3489 1.61965 15.299C1.21484 15.1208 1.09619 14.8856 1.07525 14.7217C1.05431 14.5648 1.09619 14.3225 1.41026 14.0588C1.82205 13.7238 2.21988 13.4743 2.59677 13.3317C3.91589 12.8328 5.22802 12.3837 6.44943 11.9774C6.82632 11.8491 7.06362 11.6852 7.15435 11.4713C7.24508 11.2646 7.22415 10.9938 7.07758 10.6374C6.99382 10.4378 6.91007 10.2739 6.82632 10.1313C6.42849 9.51118 6.09347 8.94095 5.94691 8.24241C5.91201 8.06422 5.78638 7.88602 5.66773 7.70782L5.63981 7.66506C5.31178 7.1661 4.97676 6.48183 5.36063 5.62648C5.42345 5.4768 5.43741 5.28434 5.45137 5.09189L5.45834 5.00636C5.4723 4.82816 5.47928 4.64996 5.48626 4.47177C5.49324 4.21516 5.50022 3.95143 5.53512 3.6877C5.68867 2.44745 6.41453 1.61349 7.68479 1.21432C8.38273 0.99336 9.16443 0.971976 10.002 1.15017C11.4328 1.45667 12.368 2.59 12.4448 4.11537C12.4518 4.25793 12.4518 4.40761 12.4587 4.54304C12.4727 5.06338 12.4797 5.54808 12.6751 6.03277C12.8775 6.53172 12.6332 7.07344 12.368 7.52963C12.2284 7.77197 12.1167 8.02145 11.9981 8.28518C11.9492 8.39923 11.9004 8.50615 11.8445 8.62019C11.7747 8.76988 11.705 8.91243 11.6421 9.06212C11.5444 9.27596 11.4397 9.48979 11.342 9.70363C11.2722 9.84619 11.2024 9.98162 11.1326 10.117C10.9861 10.4022 10.8465 10.6659 10.7488 10.951C10.679 11.1648 10.679 11.3502 10.7557 11.507C10.8395 11.6781 11.014 11.8135 11.2583 11.8919C11.677 12.0344 12.1028 12.177 12.5215 12.3196C13.2683 12.569 14.0361 12.8256 14.7899 13.0894C15.1109 13.2034 15.411 13.3602 15.7042 13.5099C15.7879 13.5527 15.8647 13.5955 15.9485 13.6311C16.088 13.7024 16.2695 13.795 16.3951 13.9447C16.4161 13.9732 16.437 14.0017 16.4649 14.0303C16.6394 14.2512 16.8418 14.5007 16.786 14.7502C16.7232 15.0567 16.3114 15.299 16.0532 15.3489C15.2784 15.5057 14.4549 15.6554 13.6173 15.7124C12.5285 15.7837 11.4328 15.8194 10.2672 15.855C9.75769 15.8692 9.23423 15.8906 8.68983 15.912L8.69681 15.9334ZM8.92713 1.47093C8.53628 1.47093 8.16637 1.52795 7.82438 1.63487C6.70767 1.98414 6.10045 2.67554 5.96784 3.75185C5.93993 3.9942 5.93295 4.23655 5.91899 4.50028C5.91201 4.67847 5.90503 4.87093 5.89107 5.05625L5.88409 5.12753C5.87013 5.3485 5.84919 5.59084 5.75148 5.81181C5.51418 6.33214 5.59095 6.81684 5.99576 7.42984L6.02368 7.4726C6.15629 7.67218 6.30984 7.90028 6.36567 8.15688C6.4913 8.78413 6.7984 9.29734 7.18227 9.90321C7.27998 10.06 7.37769 10.2453 7.46843 10.4734C7.66385 10.9439 7.68479 11.3288 7.5452 11.6495C7.39863 11.9774 7.08456 12.2198 6.58902 12.3837C5.37459 12.79 4.06246 13.2319 2.75032 13.7309C2.41531 13.8592 2.05237 14.0801 1.68246 14.3866C1.55683 14.4936 1.48704 14.5934 1.49402 14.6575C1.501 14.7145 1.58475 14.8072 1.78715 14.8999C1.86393 14.9355 1.9407 14.9569 2.00352 14.9711C2.16404 14.9996 2.32457 15.0282 2.47812 15.0638C2.84803 15.1351 3.22492 15.2135 3.59483 15.2349C4.89999 15.3204 6.18421 15.3774 7.41957 15.4416C7.85928 15.463 8.28502 15.4843 8.69681 15.5057C9.24121 15.4843 9.76467 15.4701 10.2672 15.4487C11.4258 15.4131 12.5215 15.3774 13.6034 15.3061C14.413 15.2562 15.2226 15.0994 15.9834 14.9498C16.1578 14.9141 16.3672 14.7502 16.3812 14.6789C16.3812 14.6147 16.2207 14.4152 16.1439 14.3225C16.116 14.294 16.095 14.2583 16.0741 14.2298C16.0113 14.1514 15.8787 14.0873 15.774 14.0303C15.6902 13.9875 15.6065 13.9447 15.5227 13.902C15.2435 13.7594 14.9504 13.6097 14.6573 13.5028C13.9105 13.2391 13.1427 12.9825 12.3959 12.733C11.9702 12.5904 11.5514 12.4479 11.1257 12.3053C10.7697 12.1841 10.5115 11.9774 10.3789 11.6994C10.2532 11.4428 10.2462 11.1363 10.3509 10.8156C10.4556 10.502 10.6092 10.2026 10.7557 9.91747C10.8255 9.78916 10.8953 9.65374 10.9582 9.51831C11.0628 9.30447 11.1606 9.09063 11.2583 8.8768C11.3281 8.72711 11.3979 8.58455 11.4677 8.43487C11.5165 8.32795 11.5654 8.22103 11.6142 8.10699C11.7329 7.84325 11.8585 7.56527 12.0051 7.30866C12.2075 6.9594 12.4238 6.51747 12.2842 6.18959C12.0539 5.63361 12.0469 5.07764 12.033 4.54304C12.033 4.40761 12.026 4.26506 12.019 4.1225C11.9492 2.78246 11.1606 1.82019 9.91123 1.55646C9.5832 1.50657 9.24819 1.47093 8.92713 1.47093Z" fill="white"/>
<path d="M17.6289 5.62381V10.2519H18.4036V5.62381H17.6289Z" fill="white"/>
<path d="M18.6116 11.4713H17.4251V5.41558H18.6116V11.4713ZM17.8438 10.0437H18.1998V6.84325H17.8438V10.0437Z" fill="white"/>
<path d="M20.7981 8.04786H15.2456V8.83907H20.7981V8.04786Z" fill="white"/>
<path d="M21.0005 9.0529H15.0292V7.83403H21.0005V9.0529ZM16.4549 8.62523H20.5887V8.2617H16.4549V8.62523Z" fill="white"/>
</svg>
