<svg width="20" height="17" viewBox="0 0 20 17" fill="none" xmlns="http://www.w3.org/2000/svg">
<path fill-rule="evenodd" clip-rule="evenodd" d="M16.3659 3.6047L18.5563 1.41421L17.1421 0L14.5978 2.54438C14.3221 2.40877 14.0392 2.28185 13.7491 2.16362C11.5649 1.27569 9.32782 1.17525 7.06626 1.87032C5.13068 2.46495 3.49258 3.52965 2.08267 4.94792C1.37364 5.65504 0.766477 6.43851 0.297865 7.32643C-0.0770252 8.04159 -0.113699 8.74068 0.27749 9.45182C0.315522 9.52012 0.352196 9.58932 0.388869 9.65851C0.462218 9.7969 0.535566 9.93529 0.619781 10.0665C1.454 11.3774 2.53669 12.4501 3.80252 13.3396L1.58579 15.5563L3 16.9706L5.583 14.3876C6.9476 15.0375 8.41533 15.3964 10.0206 15.4142C10.8437 15.4061 11.6994 15.3017 12.5511 15.0727C14.6374 14.5062 16.3978 13.4013 17.9055 11.8906C18.6715 11.1232 19.3317 10.2795 19.7921 9.29111C20.0611 8.70452 20.0774 8.12998 19.7921 7.55142C19.7719 7.51076 19.7517 7.46987 19.7315 7.42891C19.6299 7.22301 19.5274 7.01522 19.405 6.82421C18.5734 5.53884 17.5583 4.46625 16.3659 3.6047ZM13.3537 3.78843C11.8637 3.13085 10.2917 2.89048 8.66361 3.19216C5.79896 3.71849 3.63927 5.31354 2.02154 7.65187C1.50625 8.39625 1.51567 8.41093 2.01142 9.18331L2.04192 9.23084C2.6613 10.1871 3.46405 10.9866 4.3646 11.6857C4.57284 11.8464 4.78406 11.9992 4.99847 12.1437L6.48619 10.6559C6.06288 10.0145 5.81934 9.24688 5.81934 8.41524C5.81934 6.14923 7.68564 4.29704 9.9798 4.29704C10.8051 4.29562 11.5702 4.52608 12.2147 4.9274L13.3537 3.78843ZM13.607 6.3636L15.1641 4.80651C16.2237 5.54002 17.1339 6.44653 17.8932 7.5233C17.932 7.57871 17.9671 7.63684 18.0019 7.69467C18.0404 7.75846 18.0787 7.82188 18.1214 7.88088C18.3863 8.24248 18.3456 8.588 18.1174 8.95764C17.4735 10.0103 16.6341 10.8862 15.6683 11.6495C14.5233 12.5535 13.256 13.2365 11.8094 13.5459C11.3896 13.636 10.9597 13.6886 10.5311 13.7411C10.3482 13.7635 10.1655 13.7858 9.98388 13.8111C9.98197 13.8017 9.98095 13.7931 9.97999 13.7851L9.97999 13.7851C9.97891 13.7759 9.97789 13.7674 9.97573 13.7589C8.85547 13.7483 7.81463 13.5262 6.83885 13.1317L7.96442 12.0061C8.58064 12.3401 9.29619 12.5294 10.0654 12.5294C12.2699 12.5294 14.1688 10.6531 14.1688 8.47149C14.1688 7.69989 13.9648 6.98045 13.607 6.3636ZM10.9876 6.15451C10.6929 6.02587 10.3699 5.95231 10.0328 5.94834C8.64731 5.92825 7.51449 7.0251 7.49004 8.39917C7.48332 8.76365 7.56344 9.11386 7.71153 9.43061L10.9876 6.15451ZM9.21163 10.7589L12.3601 7.61044C12.456 7.87667 12.5053 8.16176 12.4981 8.45542C12.4614 9.81744 11.3204 10.9103 9.95535 10.8862C9.69676 10.8816 9.44679 10.8371 9.21163 10.7589Z" fill="#A0B1BB"/>
</svg>
