<svg width="20" height="14" viewBox="0 0 20 14" fill="none" xmlns="http://www.w3.org/2000/svg">
<path d="M10.0206 14C7.84456 13.9759 5.92121 13.325 4.16493 12.1719C2.7428 11.2358 1.53256 10.0867 0.619781 8.65237C0.493459 8.4555 0.391587 8.24256 0.27749 8.03765C-0.113699 7.32651 -0.0770252 6.62742 0.297865 5.91226C0.766477 5.02434 1.37364 4.24088 2.08267 3.53375C3.49258 2.11549 5.13068 1.05078 7.06626 0.456154C9.32782 -0.238917 11.5649 -0.138473 13.7491 0.749451C16.1247 1.71773 18.0196 3.26858 19.405 5.41004C19.5517 5.63906 19.6699 5.89217 19.7921 6.13726C20.0774 6.71581 20.0611 7.29035 19.7921 7.87695C19.3317 8.86531 18.6715 9.70904 17.9055 10.4764C16.3978 11.9871 14.6374 13.092 12.5511 13.6585C11.6994 13.8875 10.8437 13.992 10.0206 14ZM9.97573 12.3447C9.9798 12.3608 9.9798 12.3768 9.98388 12.3969C10.591 12.3125 11.2104 12.2603 11.8094 12.1317C13.256 11.8224 14.5233 11.1394 15.6683 10.2354C16.6341 9.47199 17.4735 8.59612 18.1174 7.54347C18.3456 7.17384 18.3863 6.82831 18.1214 6.46671C18.0399 6.35422 17.9747 6.22565 17.8932 6.10913C16.8052 4.56632 15.4076 3.37304 13.7043 2.53735C12.111 1.75791 10.4199 1.45256 8.66361 1.778C5.79896 2.30432 3.63927 3.89937 2.02154 6.2377C1.49588 6.99706 1.51626 6.99706 2.04192 7.81668C2.6613 8.7729 3.46405 9.57244 4.3646 10.2715C6.01493 11.5452 7.85271 12.3246 9.97573 12.3447Z" fill="#A0B1BB"/>
<path d="M5.81934 7.00107C5.81934 4.73506 7.68564 2.88288 9.9798 2.88288C12.3147 2.87886 14.1688 4.73104 14.1688 7.05732C14.1688 9.23896 12.2699 11.1153 10.0654 11.1153C7.68564 11.1153 5.81934 9.30325 5.81934 7.00107ZM7.49004 6.985C7.46559 8.31086 8.59026 9.44789 9.95535 9.47199C11.3204 9.4961 12.4614 8.40327 12.4981 7.04125C12.5307 5.70736 11.3979 4.55025 10.0328 4.53417C8.64731 4.51409 7.51449 5.61093 7.49004 6.985Z" fill="#A0B1BB"/>
</svg>
