<svg width="14" height="13" viewBox="0 0 14 13" fill="none" xmlns="http://www.w3.org/2000/svg">
<path d="M7.01049 12.9902C5.20122 12.9902 3.40091 13.0175 1.59164 12.9811C0.248118 12.9538 -0.387813 11.9176 0.248118 10.6996C1.44833 8.39993 2.69332 6.12753 3.93831 3.85513C4.50259 2.81892 5.08478 1.80088 5.67593 0.782846C6.29395 -0.253369 7.62851 -0.271548 8.21966 0.791935C10.0916 4.12782 11.9546 7.47279 13.7908 10.8359C14.364 11.8903 13.7012 12.972 12.51 12.9811C10.6738 12.9902 8.83767 12.9811 7.00153 12.9811C7.01049 12.9811 7.01049 12.9902 7.01049 12.9902ZM7.70912 5.00951H7.71808C7.71808 4.70955 7.70912 4.4096 7.71808 4.10055C7.73599 3.1825 7.68225 3.13705 6.76866 3.15523C6.35665 3.16432 6.14168 3.30067 6.16855 3.76424C6.24916 5.4549 6.31186 7.14557 6.3656 8.83623C6.37456 9.19982 6.53578 9.34525 6.87614 9.35434C7.20754 9.36343 7.39563 9.28163 7.4225 8.89077C7.50311 7.60005 7.6106 6.30023 7.70912 5.00951ZM6.99258 10.027C6.44621 10.0088 6.21334 10.1997 6.20438 10.7087C6.19542 11.1632 6.41934 11.4086 6.87614 11.4359C7.3598 11.4631 7.61059 11.2359 7.62851 10.7541C7.64642 10.2542 7.45833 10.0452 6.99258 10.027Z" fill="#EB5757"/>
</svg>
