<svg width="10" height="10" viewBox="0 0 10 10" fill="none" xmlns="http://www.w3.org/2000/svg">
<path d="M10 9.32176C9.76628 9.55572 9.54437 9.77786 9.32245 10C8.44424 9.11853 7.55658 8.23233 6.66657 7.33904C5.56408 8.15907 4.35772 8.43084 3.03804 8.08108C2.05831 7.82113 1.27925 7.25397 0.7103 6.41503C-0.437043 4.72062 -0.170274 2.48031 1.33591 1.0813C2.79488 -0.27754 5.05887 -0.367341 6.6406 0.878063C7.52825 1.57757 8.04999 2.49685 8.18691 3.62173C8.32384 4.74661 8.0193 5.7557 7.33703 6.6608C7.78558 7.10981 8.23177 7.55409 8.6756 8.00074C9.11943 8.44029 9.56089 8.88221 10 9.32176ZM0.972347 4.118C0.977069 5.84786 2.3841 7.25869 4.10039 7.25869C5.84973 7.25869 7.25912 5.84314 7.25676 4.09437C7.25204 2.37397 5.84029 0.967865 4.11456 0.967865C2.37466 0.970228 0.965265 2.38106 0.972347 4.118Z" fill="#A0B1BB"/>
</svg>
